<?xml version="1.0" encoding="UTF-8"?>
<svg version="1.1" xmlns="http://www.w3.org/2000/svg" width="500" height="499">
<path d="M0 0 C1.65 0.66 3.3 1.32 5 2 C5 2.66 5 3.32 5 4 C5.66 4 6.32 4 7 4 C7 4.66 7 5.32 7 6 C7.66 6 8.32 6 9 6 C11.48817699 8.23935929 13.58950855 10.15487055 15.0625 13.1875 C15.84669994 15.14383514 15.84669994 15.14383514 17.78125 15.875 C22.10415601 18.06689601 25.46764291 21.72626191 29 25 C29.53625 25.49371094 30.0725 25.98742187 30.625 26.49609375 C32.50371519 28.29093773 33.92138321 29.83814189 35.0625 32.1875 C36.29757189 34.57530565 37.60375377 34.83610897 40 36 C41.68816933 37.64488294 43.35353315 39.31337542 45 41 C45.845625 41.66 46.69125 42.32 47.5625 43 C50.13016186 45.10679948 51.94837493 47.40127491 54 50 C54.99 50.66 55.98 51.32 57 52 C57 52.66 57 53.32 57 54 C57.66 54 58.32 54 59 54 C59 54.66 59 55.32 59 56 C59.66 56 60.32 56 61 56 C61 56.66 61 57.32 61 58 C61.58555664 58.25885986 62.17111328 58.51771973 62.77441406 58.78442383 C65.1688396 60.09221724 66.71093329 61.49736101 68.609375 63.44921875 C69.28226563 64.13306641 69.95515625 64.81691406 70.6484375 65.52148438 C71.34195313 66.23626953 72.03546875 66.95105469 72.75 67.6875 C77.43493545 72.49267619 82.17352709 77.11207485 87.26367188 81.48852539 C89.22861901 83.19901298 91.06810202 84.99893846 92.875 86.875 C95.18691935 89.27519152 95.18691935 89.27519152 98 91 C98 91.66 98 92.32 98 93 C98.66 93 99.32 93 100 93 C100 93.66 100 94.32 100 95 C100.66 95 101.32 95 102 95 C102 95.66 102 96.32 102 97 C102.66 97 103.32 97 104 97 C104 97.66 104 98.32 104 99 C104.57202148 99.24532471 105.14404297 99.49064941 105.73339844 99.7434082 C108.38736797 101.21475473 110.14499183 102.93552401 112.265625 105.10546875 C113.07386719 105.92466797 113.88210938 106.74386719 114.71484375 107.58789062 C115.55144531 108.44576172 116.38804687 109.30363281 117.25 110.1875 C122.44518716 115.49278924 127.64467576 120.67702793 133.28515625 125.51000977 C135.42156658 127.36628999 137.4067156 129.34244509 139.375 131.375 C141.92180284 134.05210196 141.92180284 134.05210196 145 136 C145 136.66 145 137.32 145 138 C145.66 138 146.32 138 147 138 C148.625 139.375 148.625 139.375 150 141 C150 141.66 150 142.32 150 143 C150.66 143 151.32 143 152 143 C152 143.66 152 144.32 152 145 C152.66 145 153.32 145 154 145 C154 145.66 154 146.32 154 147 C154.66 147 155.32 147 156 147 C156 147.66 156 148.32 156 149 C157.32 149.66 158.64 150.32 160 151 C160 151.66 160 152.32 160 153 C160.58910156 153.26167969 161.17820312 153.52335938 161.78515625 153.79296875 C164.11785434 155.0642275 165.60354368 156.40230531 167.4375 158.3125 C168.34048828 159.240625 168.34048828 159.240625 169.26171875 160.1875 C169.83535156 160.785625 170.40898437 161.38375 171 162 C173.62666857 164.68636558 175.87378541 166.91585694 179 169 C178.37717887 175.71414867 177.21943377 182.12470034 175.6875 188.6875 C175.46529785 189.65139648 175.2430957 190.61529297 175.01416016 191.60839844 C173.25092476 199.15358184 171.22932037 206.57870983 169 214 C168.76796875 214.88558594 168.5359375 215.77117187 168.296875 216.68359375 C163.55587465 234.35208924 150.6933754 246.02408533 136 256 C135.34 256 134.68 256 134 256 C134 256.66 134 257.32 134 258 C133.34 258 132.68 258 132 258 C132 258.66 132 259.32 132 260 C130.35215071 261.03071358 128.67904256 262.02092194 127 263 C124.25005998 264.96558049 121.56543789 267.01649304 118.875 269.0625 C117.45625976 270.13741941 116.03700881 271.21166518 114.6171875 272.28515625 C113.99440918 272.75832275 113.37163086 273.23148926 112.72998047 273.71899414 C111.18788172 274.86087844 109.59657602 275.93561599 108 277 C108.97453125 277.61488281 108.97453125 277.61488281 109.96875 278.2421875 C110.8040625 278.78101563 111.639375 279.31984375 112.5 279.875 C113.3353125 280.40867187 114.170625 280.94234375 115.03125 281.4921875 C115.6809375 281.98976563 116.330625 282.48734375 117 283 C117 283.66 117 284.32 117 285 C117.66 285 118.32 285 119 285 C119 285.66 119 286.32 119 287 C119.99 287 120.98 287 122 287 C122 287.66 122 288.32 122 289 C122.5775 289.268125 123.155 289.53625 123.75 289.8125 C126.05550043 291.02929189 128.02056192 292.30333879 130 294 C130 294.66 130 295.32 130 296 C130.66 296 131.32 296 132 296 C150.90621172 316.25390502 158.77841112 336.14840759 158.29052734 363.55908203 C157.96373617 366.30467712 157.06272164 368.45918593 156 371 C145.59516361 371.30193981 135.19137742 371.53255079 124.78304386 371.67355824 C119.94907911 371.74125844 115.11812198 371.83296917 110.28588867 371.98071289 C105.61717453 372.12255463 100.95134087 372.19980574 96.28063774 372.23340416 C94.50411043 372.25732559 92.72773164 372.30404898 90.95244026 372.37449074 C77.56667467 372.88422952 77.56667467 372.88422952 73.34061813 369.78182602 C68.95263284 365.32741013 66.24802502 360.35118039 65.58729553 354.08772278 C65.61339008 351.6479828 65.71155403 349.20834824 65.8671875 346.7734375 C66.39582192 331.75400077 59.32603094 317.37865464 50.28515625 305.8046875 C49 304 49 304 49 302 C48.41476562 301.75378906 47.82953125 301.50757813 47.2265625 301.25390625 C44.65597983 299.80626232 43.24544307 298.20757518 41.375 295.9375 C39.04514448 293.02124288 39.04514448 293.02124288 36 291 C36 290.34 36 289.68 36 289 C35.401875 288.71125 34.80375 288.4225 34.1875 288.125 C32 287 32 287 29 285 C25.69470851 293.34192614 23.43281767 301.77731861 21.625 310.5625 C20.3187807 316.82688156 18.67007393 322.94138796 16.91113281 329.08911133 C15.19848178 335.12781584 13.73195997 341.2022216 12.43188477 347.34301758 C10.87947164 354.35171893 8.4433552 359.25451085 3 364 C2.34 364 1.68 364 1 364 C1 364.66 1 365.32 1 366 C-2.26921495 369.50927059 -4.48638547 371.28403414 -9.32809448 371.60127258 C-11.01932408 371.61566643 -12.71092826 371.60269681 -14.40185547 371.56762695 C-15.32932083 371.56835709 -16.25678619 371.56908722 -17.21235657 371.56983948 C-20.26457089 371.5663682 -23.31524123 371.5275283 -26.3671875 371.48828125 C-28.48852708 371.4789515 -30.60987747 371.47183616 -32.73123169 371.46684265 C-38.30458513 371.44778575 -43.87728324 371.39869553 -49.45037842 371.34332275 C-55.14130794 371.29210246 -60.83234373 371.26932263 -66.5234375 371.24414062 C-77.68257901 371.19057609 -88.84123493 371.10527858 -100 371 C-101.39700413 368.20599175 -100.56667619 366.9000321 -99.6875 363.9375 C-98.7008953 360.51104853 -97.77545492 357.11847913 -97.0625 353.625 C-96.27193 349.92249715 -95.20498946 346.35922806 -94.0625 342.75 C-92.68694242 338.37968607 -91.49676093 334.03430722 -90.5 329.5625 C-89.12334956 323.38954085 -87.42528569 317.34929721 -85.65820312 311.27832031 C-81.8449948 298.07918822 -78.14724097 284.85747042 -74.8828125 271.51171875 C-73.76973851 267.0840483 -72.50320828 262.70974539 -71.22753906 258.32666016 C-69.72676235 253.09164672 -68.33551492 247.82753281 -66.9296875 242.56640625 C-64.19751254 232.38102306 -61.41230362 222.21141366 -58.58984375 212.05078125 C-58.40071348 211.36963509 -58.21158321 210.68848892 -58.01672173 209.98670197 C-56.26624293 203.68313639 -54.51326498 197.38026704 -52.75854492 191.07788086 C-51.59629895 186.90269261 -50.43608271 182.7269441 -49.27734375 178.55078125 C-49.09064495 177.87831486 -48.90394615 177.20584846 -48.71158981 176.5130043 C-46.02014642 166.80915817 -43.40855921 157.08723238 -40.94187927 147.32356262 C-39.70247418 142.46706777 -38.3033653 137.71772593 -36.66072083 132.98150635 C-35.62862559 129.88624555 -34.88353583 126.73425378 -34.125 123.5625 C-31.95938215 114.64931833 -29.49263741 105.82638822 -27 97 C-22.25 97.875 -22.25 97.875 -20 99 C-20.35908447 98.2663623 -20.71816895 97.53272461 -21.08813477 96.77685547 C-26.02467452 84.214683 -21.74516132 73.53685067 -17.9375 61.125 C-17.31503628 58.99315498 -16.6958687 56.86034464 -16.08007812 54.7265625 C-11.74042222 39.84071328 -11.74042222 39.84071328 -9.35717773 33.60864258 C-8.34252353 30.91074658 -7.5436724 28.49991771 -7.0078125 25.69140625 C-5.90135043 20.3595419 -4.39530598 15.16400645 -2.875 9.9375 C-2.45927734 8.49600586 -2.45927734 8.49600586 -2.03515625 7.02539062 C-1.35920711 4.68287721 -0.68078301 2.34111223 0 0 Z M50 194 C49.91363281 194.72960937 49.82726562 195.45921875 49.73828125 196.2109375 C48.68094625 204.06819759 46.89371308 211.47851068 44.67700195 219.08154297 C43.45091395 222.97508154 43.45091395 222.97508154 43 227 C45.76547636 226.38549208 48.1460079 225.55513263 50.6796875 224.29296875 C51.70255859 223.7834668 51.70255859 223.7834668 52.74609375 223.26367188 C53.44863281 222.90853516 54.15117187 222.55339844 54.875 222.1875 C55.56980469 221.84396484 56.26460937 221.50042969 56.98046875 221.14648438 C61.19968589 219.02893001 65.11820618 216.70462262 69 214 C69.78375 213.46375 70.5675 212.9275 71.375 212.375 C71.91125 211.92125 72.4475 211.4675 73 211 C73 210.34 73 209.68 73 209 C71.25803055 207.51566667 71.25803055 207.51566667 68.984375 206.03125 C68.14519531 205.46019531 67.30601562 204.88914063 66.44140625 204.30078125 C65.10916016 203.40939453 65.10916016 203.40939453 63.75 202.5 C62.87730469 201.90574219 62.00460937 201.31148437 61.10546875 200.69921875 C57.48031571 198.24739769 53.96035778 195.87987387 50 194 Z " fill="#A22122" transform="translate(225,35)"/>
<path d="M0 0 C1.65 0.66 3.3 1.32 5 2 C5 2.66 5 3.32 5 4 C5.66 4 6.32 4 7 4 C7 4.66 7 5.32 7 6 C7.66 6 8.32 6 9 6 C11.48817699 8.23935929 13.58950855 10.15487055 15.0625 13.1875 C15.84669994 15.14383514 15.84669994 15.14383514 17.78125 15.875 C22.10415601 18.06689601 25.46764291 21.72626191 29 25 C29.53625 25.49371094 30.0725 25.98742187 30.625 26.49609375 C32.50371519 28.29093773 33.92138321 29.83814189 35.0625 32.1875 C36.29757189 34.57530565 37.60375377 34.83610897 40 36 C41.68816933 37.64488294 43.35353315 39.31337542 45 41 C45.845625 41.66 46.69125 42.32 47.5625 43 C50.13016186 45.10679948 51.94837493 47.40127491 54 50 C55.485 50.99 55.485 50.99 57 52 C57 52.66 57 53.32 57 54 C57.66 54 58.32 54 59 54 C59 54.66 59 55.32 59 56 C59.66 56 60.32 56 61 56 C61 56.66 61 57.32 61 58 C61.58555664 58.25885986 62.17111328 58.51771973 62.77441406 58.78442383 C65.1688396 60.09221724 66.71093329 61.49736101 68.609375 63.44921875 C69.61871094 64.47499023 69.61871094 64.47499023 70.6484375 65.52148438 C71.34195313 66.23626953 72.03546875 66.95105469 72.75 67.6875 C77.43493545 72.49267619 82.17352709 77.11207485 87.26367188 81.48852539 C89.22861901 83.19901298 91.06810202 84.99893846 92.875 86.875 C95.18691935 89.27519152 95.18691935 89.27519152 98 91 C98 91.66 98 92.32 98 93 C98.66 93 99.32 93 100 93 C100 93.66 100 94.32 100 95 C100.66 95 101.32 95 102 95 C102 95.66 102 96.32 102 97 C102.66 97 103.32 97 104 97 C104 97.66 104 98.32 104 99 C104.57202148 99.24532471 105.14404297 99.49064941 105.73339844 99.7434082 C108.38736797 101.21475473 110.14499183 102.93552401 112.265625 105.10546875 C113.07386719 105.92466797 113.88210938 106.74386719 114.71484375 107.58789062 C115.55144531 108.44576172 116.38804687 109.30363281 117.25 110.1875 C122.44518716 115.49278924 127.64467576 120.67702793 133.28515625 125.51000977 C135.42156658 127.36628999 137.4067156 129.34244509 139.375 131.375 C141.92180284 134.05210196 141.92180284 134.05210196 145 136 C145 136.66 145 137.32 145 138 C145.66 138 146.32 138 147 138 C148.625 139.375 148.625 139.375 150 141 C150 141.66 150 142.32 150 143 C150.66 143 151.32 143 152 143 C152 143.66 152 144.32 152 145 C152.66 145 153.32 145 154 145 C154 145.66 154 146.32 154 147 C154.66 147 155.32 147 156 147 C156 147.66 156 148.32 156 149 C157.32 149.66 158.64 150.32 160 151 C160 151.66 160 152.32 160 153 C160.598125 153.2475 161.19625 153.495 161.8125 153.75 C164.28647521 155.16370012 165.43370255 156.65055383 167 159 C163.12009535 157.87913866 160.71996219 156.96723147 158 154 C155.90010348 152.82425289 155.90010348 152.82425289 154 152 C154 150.68 154 149.36 154 148 C147.13430495 147.95832213 147.13430495 147.95832213 141.4375 151.3125 C140.60736951 152.52982917 139.79830804 153.76156905 139 155 C137.55225579 156.96617452 136.09276993 158.92372939 134.625 160.875 C133.83867187 161.92558594 133.05234375 162.97617188 132.2421875 164.05859375 C123.48538685 175.54617369 113.20630787 186.13464886 101.31640625 194.35546875 C97.43971031 197.10772674 94.64783134 200.02825299 92 204 C91.67 203.34 91.34 202.68 91 202 C89.18104721 203.26158011 87.3700098 204.53457906 85.5625 205.8125 C84.04849609 206.87404297 84.04849609 206.87404297 82.50390625 207.95703125 C79.76195543 209.8222287 79.76195543 209.8222287 79 213 C78.01 213.33 77.02 213.66 76 214 C76.66 214.33 77.32 214.66 78 215 C77.67 216.65 77.34 218.3 77 220 C76.319375 219.46375 75.63875 218.9275 74.9375 218.375 C70.93169964 216.49994451 69.07862528 217.54334812 65 219 C63.33753959 219.35371498 61.67225729 219.69595322 60 220 C61.84296045 217.95226617 63.61391801 216.59507535 65.9375 215.0625 C68.98164628 213.1764374 68.98164628 213.1764374 71 210.875 C73.49060211 208.54006052 75.73701435 207.90252795 79 207 C79.99 206.67 80.98 206.34 82 206 C82 205.34 82 204.68 82 204 C83.4540625 202.824375 83.4540625 202.824375 84.9375 201.625 C92.58259086 195.25409095 99.88056498 185.91464517 102 176 C102.14854789 173.92832188 102.14854789 173.92832188 101 172 C98.8172945 170.32260577 96.70614488 168.87723963 94.375 167.4375 C93.00055781 166.55787685 91.62822007 165.67495828 90.2578125 164.7890625 C89.55172852 164.33305664 88.84564453 163.87705078 88.11816406 163.40722656 C84.73920637 161.16237731 81.49790523 158.7414011 78.25 156.3125 C73.13569287 152.50762446 67.94022418 148.96137105 62.5234375 145.59375 C59.22331906 143.50946467 56.04805763 141.27087335 52.86328125 139.015625 C49.26235506 136.48073017 45.63179203 133.99038371 42 131.5 C36.86255416 127.97594238 31.74795824 124.42362143 26.66015625 120.828125 C24.47694516 119.32776848 22.27795419 117.86752789 20.05859375 116.421875 C19.36838135 115.97013916 18.67816895 115.51840332 17.96704102 115.05297852 C16.58996673 114.15415993 15.20901898 113.26124361 13.82397461 112.37475586 C12.18127903 111.30114982 10.58552153 110.15637371 9 109 C9 108.34 9 107.68 9 107 C8.41661865 106.88446777 7.8332373 106.76893555 7.23217773 106.64990234 C4.84208862 105.95402383 3.3113476 105.03377447 1.28515625 103.6015625 C0.59873047 103.12203125 -0.08769531 102.6425 -0.79492188 102.1484375 C-1.85549805 101.39433594 -1.85549805 101.39433594 -2.9375 100.625 C-10.8647527 94.55005742 -10.8647527 94.55005742 -20 91 C-20 92.65 -20 94.3 -20 96 C-22.87058774 91.69411839 -24.33964047 87.68269289 -23.68692017 82.52709961 C-23.03928371 79.72233934 -22.27566224 76.97845242 -21.45703125 74.21875 C-21.17276779 73.20582886 -20.88850433 72.19290771 -20.59562683 71.14929199 C-19.68617638 67.92734359 -18.74942948 64.71405138 -17.8125 61.5 C-17.20075041 59.34033122 -16.59070701 57.18017837 -15.98242188 55.01953125 C-11.45384406 39.06576082 -11.45384406 39.06576082 -9.36157227 33.59545898 C-8.34089614 30.90019321 -7.54350818 28.49905702 -7.0078125 25.69140625 C-5.90135043 20.3595419 -4.39530598 15.16400645 -2.875 9.9375 C-2.59785156 8.97650391 -2.32070312 8.01550781 -2.03515625 7.02539062 C-1.35920711 4.68287721 -0.68078301 2.34111223 0 0 Z " fill="#CE2829" transform="translate(225,35)"/>
<path d="M0 0 C6.41733745 0.26129224 10.60374276 3.8260573 15.625 7.4375 C17.30320133 8.62579957 18.98283727 9.8120763 20.6640625 10.99609375 C21.40092285 11.52388428 22.1377832 12.0516748 22.89697266 12.59545898 C24.87508124 13.91657097 26.84948836 14.98972716 29 16 C29 16.66 29 17.32 29 18 C30.08087891 18.38285156 30.08087891 18.38285156 31.18359375 18.7734375 C34.18564255 20.08084849 36.45467022 21.65044412 39.0625 23.625 C43.91497862 27.2302552 48.87114055 30.61361342 53.9140625 33.9453125 C58.73709887 37.15660001 63.48501376 40.47557367 68.24316406 43.78173828 C71.36462156 45.94628427 74.49471748 48.09824465 77.625 50.25 C78.28491943 50.70391113 78.94483887 51.15782227 79.62475586 51.62548828 C83.36282202 54.19465791 87.10638001 56.75553332 90.85546875 59.30859375 C99.33294183 65.08482122 107.74310287 70.91143585 116 77 C118.32760473 78.67489018 120.66304492 80.33816527 123 82 C120.91470646 94.92881993 113.27910539 104.17575271 104 113 C103.34 113 102.68 113 102 113 C102 113.66 102 114.32 102 115 C99.76553308 117.3238456 98.09020641 117.97974958 94.9375 118.6875 C88.79250033 117.61456355 84.83854193 113.76555983 80 110 C78.28291078 108.81562966 76.55482802 107.64691829 74.8125 106.5 C74.07644531 106.0153125 73.34039062 105.530625 72.58203125 105.03125 C72.05996094 104.6909375 71.53789062 104.350625 71 104 C70.90203125 104.71542969 70.8040625 105.43085938 70.703125 106.16796875 C67.64032941 126.57780488 67.64032941 126.57780488 62 132 C61.26958147 135.61023099 61.26958147 135.61023099 61 139 C59.3962669 139.64690922 57.79199694 140.29248764 56.1875 140.9375 C55.29417969 141.29714844 54.40085937 141.65679687 53.48046875 142.02734375 C51.6729091 142.73613486 49.84192591 143.3860247 48 144 C48.58960429 137.81981049 49.97764031 132.29239597 51.8125 126.375 C55.32276628 114.6959113 58.4655532 102.92694538 61.55477905 91.13067627 C62.09938289 89.05199451 62.64593719 86.97382273 63.19448853 84.8961792 C63.97632298 81.93219917 64.75094715 78.96642737 65.5234375 76 C65.75857559 75.11116119 65.99371368 74.22232239 66.23597717 73.30654907 C67.55345186 68.20337916 68.46354953 63.24461906 69 58 C67.76636719 57.14728516 67.76636719 57.14728516 66.5078125 56.27734375 C60.52289382 52.13837589 54.54617906 47.98864754 48.58984375 43.80859375 C46.14376263 42.10039532 43.68872969 40.40562532 41.23193359 38.71289062 C40.68102051 38.33326172 40.13010742 37.95363281 39.5625 37.5625 C39.01674316 37.18673828 38.47098633 36.81097656 37.90869141 36.42382812 C33.27986552 33.22358443 28.74858968 29.90102255 24.2421875 26.53125 C21.99407025 24.84586798 21.99407025 24.84586798 19 24 C19 23.34 19 22.68 19 22 C18.30261719 21.74863281 17.60523438 21.49726563 16.88671875 21.23828125 C13.61937296 19.83672697 10.79354824 18.12425556 7.8125 16.1875 C6.76707031 15.52105469 5.72164062 14.85460937 4.64453125 14.16796875 C1.80002427 11.83606125 0.91483085 10.51516822 0 7 C-0.07646165 4.6679198 -0.09143299 2.33154122 0 0 Z " fill="#880101" transform="translate(205,126)"/>
<path d="M0 0 C3.39874559 1.52276362 6.05846254 3.52386001 8.9375 5.875 C9.77152344 6.55304688 10.60554688 7.23109375 11.46484375 7.9296875 C12.30144531 8.61289062 13.13804687 9.29609375 14 10 C14.85980469 10.66773438 15.71960938 11.33546875 16.60546875 12.0234375 C18.78142783 13.8195799 20.55614989 15.60286962 22.375 17.75 C25.02036848 20.85497215 25.02036848 20.85497215 27.72265625 23.91015625 C41 38.6392369 41 38.6392369 41 43 C41.99 43 42.98 43 44 43 C44 43.66 44 44.32 44 45 C44.99 45 45.98 45 47 45 C49.46126639 47.63731244 50.5242194 50.08819324 51.38671875 53.5546875 C51.60263672 54.41707031 51.81855469 55.27945313 52.04101562 56.16796875 C52.25435547 57.06128906 52.46769531 57.95460938 52.6875 58.875 C53.02491211 60.20337891 53.02491211 60.20337891 53.36914062 61.55859375 C54.48973568 66.12953163 55.28964989 70.25600453 55 75 C55.99 75.33 56.98 75.66 58 76 C57.01 77.98 57.01 77.98 56 80 C56.66 80 57.32 80 58 80 C58.125 85.75 58.125 85.75 57 88 C57.165 89.134375 57.33 90.26875 57.5 91.4375 C58 95 58 95 57 98 C57.66 98.66 58.32 99.32 59 100 C58.67 101.65 58.34 103.3 58 105 C71.86 105 85.72 105 100 105 C100 104.34 100 103.68 100 103 C101.32 103.33 102.64 103.66 104 104 C104 104.66 104 105.32 104 106 C97.25574611 106.10149262 90.51168945 106.17150433 83.7668457 106.21972656 C81.47282552 106.23983106 79.17885652 106.26711891 76.88500977 106.30175781 C73.58597174 106.35032559 70.28761178 106.37298077 66.98828125 106.390625 C65.96414627 106.41127014 64.94001129 106.43191528 63.88484192 106.45318604 C56.73110217 106.45543596 56.73110217 106.45543596 52.91210938 104.07641602 C52.28111328 103.39119873 51.65011719 102.70598145 51 102 C50.47792969 101.46761719 49.95585937 100.93523437 49.41796875 100.38671875 C45.33654623 94.75046861 45.77885203 89.71702096 46.0078125 82.94921875 C45.97759129 67.67239533 39.54733238 53.66196081 30.28515625 41.8046875 C29 40 29 40 29 38 C28.41476562 37.75378906 27.82953125 37.50757813 27.2265625 37.25390625 C24.65597983 35.80626232 23.24544307 34.20757518 21.375 31.9375 C19.04514448 29.02124288 19.04514448 29.02124288 16 27 C16 26.34 16 25.68 16 25 C15.401875 24.71125 14.80375 24.4225 14.1875 24.125 C12 23 12 23 9 21 C5.69470851 29.34192614 3.43281767 37.77731861 1.625 46.5625 C0.3187807 52.82688156 -1.32992607 58.94138796 -3.08886719 65.08911133 C-4.80151822 71.12781584 -6.26804003 77.2022216 -7.56811523 83.34301758 C-9.12052836 90.35171893 -11.5566448 95.25451085 -17 100 C-17.66 100 -18.32 100 -19 100 C-19 100.66 -19 101.32 -19 102 C-21.70121389 104.7377359 -23.38410489 105.90801709 -27.22077942 106.48101807 C-28.43545395 106.47213562 -29.65012848 106.46325317 -30.90161133 106.45410156 C-31.57533783 106.45468567 -32.24906433 106.45526978 -32.94320679 106.45587158 C-35.15668356 106.45309826 -37.36879155 106.4220454 -39.58203125 106.390625 C-41.12187464 106.38315985 -42.66172756 106.37746821 -44.20158386 106.37347412 C-48.24435899 106.35823912 -52.28655459 106.3189765 -56.32910156 106.2746582 C-60.45825359 106.23365895 -64.58749974 106.21545322 -68.71679688 106.1953125 C-76.81146316 106.15247948 -84.90565938 106.08425485 -93 106 C-93 105.67 -93 105.34 -93 105 C-81.12350339 103.95932495 -69.29600925 103.84520291 -57.37988281 103.86962891 C-54.2141456 103.87506153 -51.04854582 103.86961467 -47.8828125 103.86328125 C-45.86458302 103.86394087 -43.84635363 103.86521961 -41.828125 103.8671875 C-40.88447083 103.86516327 -39.94081665 103.86313904 -38.96856689 103.86105347 C-37.66009796 103.86578171 -37.66009796 103.86578171 -36.32519531 103.87060547 C-35.55991516 103.87140106 -34.79463501 103.87219666 -34.00616455 103.87301636 C-32 104 -32 104 -29 105 C-29 104.34 -29 103.68 -29 103 C-28.34 102.67 -27.68 102.34 -27 102 C-26.04498132 99.26602339 -26.04498132 99.26602339 -25.3125 96.0625 C-25.04050781 94.98097656 -24.76851563 93.89945312 -24.48828125 92.78515625 C-23.72488586 90.05443929 -23.72488586 90.05443929 -25 88 C-24.34 88 -23.68 88 -23 88 C-22.87625 86.906875 -22.7525 85.81375 -22.625 84.6875 C-21.69629705 77.32327801 -20.63712251 69.96953806 -18 63 C-17.34 63 -16.68 63 -16 63 C-15.90203125 62.46375 -15.8040625 61.9275 -15.703125 61.375 C-14.2711683 53.86957177 -12.41183403 46.4845665 -10.52783203 39.08349609 C-10.0214085 37.08450514 -9.52262384 35.08380929 -9.02734375 33.08203125 C-7.17152555 25.58350986 -5.26409799 18.09919006 -3.3125 10.625 C-3.09795166 9.79766357 -2.88340332 8.97032715 -2.66235352 8.11791992 C-1.11742124 2.23484247 -1.11742124 2.23484247 0 0 Z " fill="#2C0D0D" transform="translate(245,299)"/>
<path d="M0 0 C3.32006187 1.10668729 4.0582597 1.94572595 6.25 4.5625 C7.17232422 5.65304687 7.17232422 5.65304687 8.11328125 6.765625 C8.73589844 7.50296875 9.35851562 8.2403125 10 9 C11.14496835 10.2716127 12.29078901 11.54245854 13.4375 12.8125 C25 26.03053977 25 26.03053977 25 30 C25.99 30 26.98 30 28 30 C28 30.66 28 31.32 28 32 C28.99 32 29.98 32 31 32 C33.46126639 34.63731244 34.5242194 37.08819324 35.38671875 40.5546875 C35.7105957 41.84826172 35.7105957 41.84826172 36.04101562 43.16796875 C36.25435547 44.06128906 36.46769531 44.95460938 36.6875 45.875 C36.91244141 46.76058594 37.13738281 47.64617187 37.36914062 48.55859375 C38.48973568 53.12953163 39.28964989 57.25600453 39 62 C39.99 62.33 40.98 62.66 42 63 C41.34 64.32 40.68 65.64 40 67 C40.66 67 41.32 67 42 67 C42.125 72.75 42.125 72.75 41 75 C41.165 76.134375 41.33 77.26875 41.5 78.4375 C42 82 42 82 41 85 C41.99 85.99 41.99 85.99 43 87 C42.67 88.65 42.34 90.3 42 92 C55.86 92 69.72 92 84 92 C84 91.34 84 90.68 84 90 C85.98 90.495 85.98 90.495 88 91 C88 91.66 88 92.32 88 93 C81.25574611 93.10149262 74.51168945 93.17150433 67.7668457 93.21972656 C65.47282552 93.23983106 63.17885652 93.26711891 60.88500977 93.30175781 C57.58597174 93.35032559 54.28761178 93.37298077 50.98828125 93.390625 C49.96414627 93.41127014 48.94001129 93.43191528 47.88484192 93.45318604 C40.73110217 93.45543596 40.73110217 93.45543596 36.91210938 91.07641602 C36.28111328 90.39119873 35.65011719 89.70598145 35 89 C34.21689453 88.20142578 34.21689453 88.20142578 33.41796875 87.38671875 C29.33654623 81.75046861 29.77885203 76.71702096 30.0078125 69.94921875 C29.97759129 54.67239533 23.54733238 40.66196081 14.28515625 28.8046875 C13 27 13 27 13 25 C12.41476562 24.75378906 11.82953125 24.50757813 11.2265625 24.25390625 C8.65597983 22.80626232 7.24544307 21.20757518 5.375 18.9375 C3.04514448 16.02124288 3.04514448 16.02124288 0 14 C0 13.34 0 12.68 0 12 C-0.8971875 11.566875 -0.8971875 11.566875 -1.8125 11.125 C-4 10 -4 10 -7 8 C-7.99 10.64 -8.98 13.28 -10 16 C-10.33 16 -10.66 16 -11 16 C-11 12.37 -11 8.74 -11 5 C-9.1128125 4.87625 -9.1128125 4.87625 -7.1875 4.75 C-3.66188788 4.33442857 -3.66188788 4.33442857 -1 1.9375 C-0.67 1.298125 -0.34 0.65875 0 0 Z " fill="#261818" transform="translate(261,312)"/>
<path d="M0 0 C3.32006187 1.10668729 4.0582597 1.94572595 6.25 4.5625 C7.17232422 5.65304687 7.17232422 5.65304687 8.11328125 6.765625 C8.73589844 7.50296875 9.35851562 8.2403125 10 9 C11.14496835 10.2716127 12.29078901 11.54245854 13.4375 12.8125 C25 26.03053977 25 26.03053977 25 30 C25.99 30 26.98 30 28 30 C28 30.66 28 31.32 28 32 C28.99 32 29.98 32 31 32 C33.46126639 34.63731244 34.5242194 37.08819324 35.38671875 40.5546875 C35.7105957 41.84826172 35.7105957 41.84826172 36.04101562 43.16796875 C36.25435547 44.06128906 36.46769531 44.95460938 36.6875 45.875 C36.91244141 46.76058594 37.13738281 47.64617187 37.36914062 48.55859375 C38.48973568 53.12953163 39.28964989 57.25600453 39 62 C36.48587057 57.45062294 35.03466264 52.4597358 33.38671875 47.55078125 C30.80365223 38.53544371 30.80365223 38.53544371 25 32 C24.505 32.99 24.505 32.99 24 34 C23 36 23 36 21 39 C19.85018626 37.23174858 18.70528078 35.46030479 17.5625 33.6875 C16.92441406 32.70136719 16.28632813 31.71523438 15.62890625 30.69921875 C14 28 14 28 13 25 C11.67122086 24.32430167 10.33717283 23.65893174 9 23 C7.1484375 21.08984375 7.1484375 21.08984375 5.375 18.9375 C3.04514448 16.02124288 3.04514448 16.02124288 0 14 C0 13.34 0 12.68 0 12 C-0.8971875 11.566875 -0.8971875 11.566875 -1.8125 11.125 C-4 10 -4 10 -7 8 C-7.99 10.64 -8.98 13.28 -10 16 C-10.33 16 -10.66 16 -11 16 C-11 12.37 -11 8.74 -11 5 C-9.1128125 4.87625 -9.1128125 4.87625 -7.1875 4.75 C-3.66188788 4.33442857 -3.66188788 4.33442857 -1 1.9375 C-0.67 1.298125 -0.34 0.65875 0 0 Z " fill="#441F1F" transform="translate(261,312)"/>
<path d="M0 0 C0.33 0 0.66 0 1 0 C1 3.96 1 7.92 1 12 C0.34 12 -0.32 12 -1 12 C-1.12117188 13.11117187 -1.24234375 14.22234375 -1.3671875 15.3671875 C-3.80390622 37.22634937 -3.80390622 37.22634937 -8 46 C-6.515 45.505 -6.515 45.505 -5 45 C-5 45.66 -5 46.32 -5 47 C-4.34 47 -3.68 47 -3 47 C-3.11509661 48.41750563 -3.24253658 49.83401169 -3.375 51.25 C-3.44460938 52.03890625 -3.51421875 52.8278125 -3.5859375 53.640625 C-4.01973454 56.11244964 -4.87072732 57.77593624 -6 60 C-6.10570312 60.86109375 -6.21140625 61.7221875 -6.3203125 62.609375 C-7 65 -7 65 -9.1796875 66.328125 C-10.06914062 66.63234375 -10.95859375 66.9365625 -11.875 67.25 C-12.75929688 67.56453125 -13.64359375 67.8790625 -14.5546875 68.203125 C-15.76511719 68.59757812 -15.76511719 68.59757812 -17 69 C-18.485 69.495 -18.485 69.495 -20 70 C-19.40089693 63.57461963 -17.89182394 57.7822276 -16 51.625 C-12.80364137 40.97104145 -9.88996421 30.2562531 -7.0625 19.5 C-6.85955322 18.7285968 -6.65660645 17.9571936 -6.44750977 17.16241455 C-5.29421077 12.77601846 -4.14522056 8.38851334 -3 4 C-2.34 4 -1.68 4 -1 4 C-0.67 2.68 -0.34 1.36 0 0 Z " fill="#7D0100" transform="translate(273,200)"/>
<path d="M0 0 C2.64 0.33 5.28 0.66 8 1 C8.12375 2.175625 8.12375 2.175625 8.25 3.375 C8.72806339 6.14749104 8.72806339 6.14749104 11.0625 7.3125 C11.701875 7.539375 12.34125 7.76625 13 8 C12.01 8.33 11.02 8.66 10 9 C10 9.99 10 10.98 10 12 C8.68 12.33 7.36 12.66 6 13 C6 12.01 6 11.02 6 10 C4.68 10 3.36 10 2 10 C0.79371992 12.33214148 -0.1654738 14.49642139 -1 17 C-0.34 17 0.32 17 1 17 C1 17.66 1 18.32 1 19 C0.34 19 -0.32 19 -1 19 C-1.268125 20.175625 -1.53625 21.35125 -1.8125 22.5625 C-2.81026115 26.58184988 -4.34287282 30.20241688 -6 34 C-6.8161363 36.33452943 -7.43140408 38.58346733 -8 41 C-7.67 41.66 -7.34 42.32 -7 43 C-7 46 -7 46 -9 49 C-9.99 49 -10.98 49 -12 49 C-11.938125 49.763125 -11.87625 50.52625 -11.8125 51.3125 C-12.03403312 54.48780806 -12.71775032 54.95735659 -15 57 C-14.05617659 51.49850301 -12.81295203 46.19802984 -11.125 40.875 C-9.59780463 36.0567268 -8.25817687 31.22214993 -7.0625 26.3125 C-4.91245602 17.48405853 -2.46929216 8.74372304 0 0 Z " fill="#CD2221" transform="translate(198,132)"/>
<path d="M0 0 C-0.66 1.32 -1.32 2.64 -2 4 C-1.01 4.33 -0.02 4.66 1 5 C1.6875 7.0625 1.6875 7.0625 2 9 C-2.89626678 12.26417785 -5.01049043 13.59461522 -11 13 C-13.6536571 11.92943181 -16.01660546 10.51658155 -18.4375 9 C-19.07365234 8.6184375 -19.70980469 8.236875 -20.36523438 7.84375 C-21.91844992 6.90948501 -23.46044863 5.95661444 -25 5 C-25 4.34 -25 3.68 -25 3 C-23.86820312 2.86722656 -22.73640625 2.73445313 -21.5703125 2.59765625 C-20.08851821 2.4194658 -18.60674864 2.24106971 -17.125 2.0625 C-16.00544922 1.93198242 -16.00544922 1.93198242 -14.86328125 1.79882812 C-0.06328125 -0.00117188 -0.06328125 -0.00117188 0 0 Z " fill="#490202" transform="translate(337,297)"/>
<path d="M0 0 C0 0.66 0 1.32 0 2 C-0.66 2 -1.32 2 -2 2 C-2.14308594 3.13501953 -2.14308594 3.13501953 -2.2890625 4.29296875 C-3.52146128 8.98556409 -7.29070278 11.11368473 -11 14 C-11.94746094 14.74636719 -12.89492188 15.49273437 -13.87109375 16.26171875 C-19.50542045 20.54919445 -19.50542045 20.54919445 -22 22 C-22.99 21.67 -23.98 21.34 -25 21 C-24.34 20.67 -23.68 20.34 -23 20 C-23.33 19.34 -23.66 18.68 -24 18 C-22.68 17.67 -21.36 17.34 -20 17 C-20 16.01 -20 15.02 -20 14 C-21.32 13.67 -22.64 13.34 -24 13 C-24 12.34 -24 11.68 -24 11 C-23.34 10.67 -22.68 10.34 -22 10 C-22.66 9.34 -23.32 8.68 -24 8 C-22.74703125 7.59007812 -21.4940625 7.18015625 -20.203125 6.7578125 C-18.55203054 6.21370183 -16.90099178 5.66942214 -15.25 5.125 C-14.425 4.85558594 -13.6 4.58617187 -12.75 4.30859375 C-11.95078125 4.04433594 -11.1515625 3.78007812 -10.328125 3.5078125 C-9.5949707 3.26691895 -8.86181641 3.02602539 -8.10644531 2.77783203 C-5.9568353 2.03098562 -5.9568353 2.03098562 -3.85449219 0.90576172 C-2 0 -2 0 0 0 Z " fill="#4A0404" transform="translate(358,288)"/>
<path d="M0 0 C0.66 0 1.32 0 2 0 C2.05821935 3.89577024 2.0936703 7.79142802 2.125 11.6875 C2.14175781 12.79029297 2.15851563 13.89308594 2.17578125 15.02929688 C2.18222656 16.09599609 2.18867188 17.16269531 2.1953125 18.26171875 C2.20578613 19.24100342 2.21625977 20.22028809 2.22705078 21.22924805 C1.98346327 24.20180142 1.30872147 26.32985686 0 29 C-2.57957657 31.12328355 -5.59264191 33 -9 33 C-8.38049165 25.90146683 -6.53765672 19.37514748 -4.5 12.5625 C-4.17902344 11.46228516 -3.85804688 10.36207031 -3.52734375 9.22851562 C-1.13894747 1.13894747 -1.13894747 1.13894747 0 0 Z " fill="#700202" transform="translate(262,237)"/>
<path d="M0 0 C0.99 0.495 0.99 0.495 2 1 C3.56746703 5.7024011 3.18447503 10.45034843 3.1875 15.375 C3.19974609 16.4165625 3.21199219 17.458125 3.22460938 18.53125 C3.22654297 19.53929687 3.22847656 20.54734375 3.23046875 21.5859375 C3.23457764 22.5042334 3.23868652 23.4225293 3.24291992 24.36865234 C3 27 3 27 1 32 C-25.73 32 -52.46 32 -80 32 C-79.67 31.34 -79.34 30.68 -79 30 C-77.75758293 30.00333092 -77.75758293 30.00333092 -76.49006653 30.00672913 C-68.67735313 30.02678138 -60.8646484 30.04199932 -53.05191517 30.05181217 C-49.03549411 30.05702667 -45.01909435 30.06409828 -41.00268555 30.07543945 C-37.12531513 30.08631928 -33.24796518 30.09228764 -29.37058067 30.09487724 C-27.89264288 30.09672231 -26.41470618 30.10032524 -24.93677711 30.10573006 C-22.86383281 30.11300812 -20.79097264 30.11398809 -18.71801758 30.11352539 C-17.53887283 30.115746 -16.35972809 30.11796661 -15.14485168 30.12025452 C-10.93277535 29.95919089 -7.06402062 29.05363497 -3 28 C-3 27.01 -3 26.02 -3 25 C-2.505 23.989375 -2.01 22.97875 -1.5 21.9375 C1.36849093 15.5510485 0.17036249 8.68778567 -1 2 C-0.67 1.34 -0.34 0.68 0 0 Z " fill="#716866" transform="translate(380,374)"/>
<path d="M0 0 C3.38746512 1.12915504 4.37451366 2.22743073 6.6875 4.875 C7.31011719 5.57367188 7.93273437 6.27234375 8.57421875 6.9921875 C10 9 10 9 10 12 C9.34 12.66 8.68 13.32 8 14 C8 14.99 8 15.98 8 17 C7.67 17.99 7.34 18.98 7 20 C5.8274869 19.04882866 4.66212985 18.08882991 3.5 17.125 C2.8503125 16.59132813 2.200625 16.05765625 1.53125 15.5078125 C1.0259375 15.01023437 0.520625 14.51265625 0 14 C0 13.34 0 12.68 0 12 C-0.8971875 11.566875 -0.8971875 11.566875 -1.8125 11.125 C-4 10 -4 10 -7 8 C-7.99 10.64 -8.98 13.28 -10 16 C-10.33 16 -10.66 16 -11 16 C-11 12.37 -11 8.74 -11 5 C-9.1128125 4.87625 -9.1128125 4.87625 -7.1875 4.75 C-3.66188788 4.33442857 -3.66188788 4.33442857 -1 1.9375 C-0.67 1.298125 -0.34 0.65875 0 0 Z " fill="#5A2929" transform="translate(261,312)"/>
<path d="M0 0 C4.7734375 -0.171875 4.7734375 -0.171875 6.8125 1.375 C8 3 8 3 8 5 C9.65 5.33 11.3 5.66 13 6 C13.33 7.32 13.66 8.64 14 10 C10.52276264 8.74433095 7.90617542 7.26656844 5 5 C4.90203125 5.71542969 4.8040625 6.43085938 4.703125 7.16796875 C3.51998085 15.05219659 1.51189639 22.43992349 -1 30 C-2.09658936 26.71023192 -1.79953138 25.28696233 -1 22 C-1.66 22 -2.32 22 -3 22 C-3.5625 20.0625 -3.5625 20.0625 -4 18 C-3.67 17.67 -3.34 17.34 -3 17 C-2.43655256 14.14772981 -1.91865055 11.30368392 -1.4375 8.4375 C-1.29892578 7.63119141 -1.16035156 6.82488281 -1.01757812 5.99414062 C-0.67482237 3.99670189 -0.33695612 1.99842528 0 0 Z M-6 20 C-4 21 -4 21 -4 21 Z " fill="#970505" transform="translate(271,225)"/>
<path d="M0 0 C0.33 0 0.66 0 1 0 C1.33 3.96 1.66 7.92 2 12 C1.34 12 0.68 12 0 12 C0.350625 12.598125 0.70125 13.19625 1.0625 13.8125 C2 16 2 16 1 19 C0.34120105 20.4411227 -0.32625079 21.87830591 -1 23.3125 C-2.28338222 26.14146081 -3.04627339 28.27764031 -3.5625 31.375 C-4.0730793 34.43847582 -4.83285505 34.91954085 -7 37 C-7.67863055 38.9959722 -8.34641919 40.99568551 -9 43 C-9.99 43.495 -9.99 43.495 -11 44 C-10.38705118 39.02019199 -9.37132546 34.31318484 -7.96875 29.4921875 C-7.77277222 28.80367706 -7.57679443 28.11516663 -7.37487793 27.40579224 C-6.75422391 25.22760306 -6.12750612 23.05122407 -5.5 20.875 C-4.87342271 18.69138537 -4.24819119 16.50740271 -3.62512207 14.32278442 C-3.23894226 12.9698255 -2.85062963 11.61747292 -2.45983887 10.26583862 C-1.48566727 6.86394756 -0.6344166 3.48181781 0 0 Z " fill="#D16060" transform="translate(182,190)"/>
<path d="M0 0 C0.76682923 2.62912879 1.2919645 5.30212057 1.75 8 C1.86859375 8.66 1.9871875 9.32 2.109375 10 C1.96051123 12.72208028 0.62347581 13.8460816 -1 16 C-1.67503623 18.67070852 -1.67503623 18.67070852 -2 21.5 C-2.67051814 26.58476259 -2.67051814 26.58476259 -4.42578125 28.796875 C-6.80939147 32.13274638 -7.34231271 35.78386821 -8.1875 39.75 C-8.36474609 40.54277344 -8.54199219 41.33554687 -8.72460938 42.15234375 C-9.15863654 44.09960076 -9.58052679 46.04955604 -10 48 C-10.66 48 -11.32 48 -12 48 C-10.52220362 34.62594276 -6.43199304 21.76195724 -2.56933594 8.91357422 C-1.68745511 5.94951679 -0.8434266 2.97520668 0 0 Z " fill="#D06C6E" transform="translate(165,253)"/>
<path d="M0 0 C1.125 3.75 1.125 3.75 0 6 C0.66 6 1.32 6 2 6 C1.34 8.64 0.68 11.28 0 14 C-0.66 14 -1.32 14 -2 14 C-1.97679687 14.74765625 -1.95359375 15.4953125 -1.9296875 16.265625 C-1.90261719 17.74289062 -1.90261719 17.74289062 -1.875 19.25 C-1.85179687 20.22453125 -1.82859375 21.1990625 -1.8046875 22.203125 C-2.00432044 25.06186877 -2.60420754 26.54678902 -4 29 C-4.37668344 30.65740715 -4.72057545 32.32345271 -5 34 C-6.485 34.495 -6.485 34.495 -8 35 C-8.33 38.96 -8.66 42.92 -9 47 C-10.485 47.495 -10.485 47.495 -12 48 C-10.41251909 38.03002643 -7.87514974 28.33979912 -5.05078125 18.65625 C-3.27097593 12.46332145 -1.64066893 6.23105115 0 0 Z " fill="#7B4B4C" transform="translate(144,329)"/>
<path d="M0 0 C0.96088383 2.88265149 1.11670941 4.67662271 1.09765625 7.66796875 C1.09443359 8.56064453 1.09121094 9.45332031 1.08789062 10.37304688 C1.07951172 11.30181641 1.07113281 12.23058594 1.0625 13.1875 C1.05798828 14.12787109 1.05347656 15.06824219 1.04882812 16.03710938 C1.03704626 18.35813712 1.02059558 20.67903644 1 23 C-0.32 23.33 -1.64 23.66 -3 24 C-3.19335938 25.12019531 -3.38671875 26.24039063 -3.5859375 27.39453125 C-3.8485886 28.86725349 -4.11162983 30.33990619 -4.375 31.8125 C-4.56449219 32.91948242 -4.56449219 32.91948242 -4.7578125 34.04882812 C-5.40163482 37.60594646 -5.96996056 39.95494084 -8 43 C-8.66 42.67 -9.32 42.34 -10 42 C-9.70222656 41.32324219 -9.40445312 40.64648438 -9.09765625 39.94921875 C-6.05163151 31.76505974 -4.8217456 22.53766964 -4.2109375 13.85546875 C-4 12 -4 12 -3 10 C-2.34 10 -1.68 10 -1 10 C-1.01160156 9.36191406 -1.02320313 8.72382813 -1.03515625 8.06640625 C-1.04417969 7.24011719 -1.05320312 6.41382813 -1.0625 5.5625 C-1.07410156 4.73878906 -1.08570313 3.91507813 -1.09765625 3.06640625 C-1 1 -1 1 0 0 Z " fill="#8D0000" transform="translate(275,202)"/>
<path d="M0 0 C0.93423645 3.01031744 1.04449911 3.86650268 0 7 C-0.26515629 9.83254261 -0.44387266 12.66459816 -0.62109375 15.50390625 C-1 18 -1 18 -3 20 C-3.53361593 21.9003111 -3.53361593 21.9003111 -3.75 24 C-3.84796875 24.70125 -3.9459375 25.4025 -4.046875 26.125 C-4.20925848 28.25021736 -4.20925848 28.25021736 -2 30 C-3.3125 32 -3.3125 32 -5 34 C-5.99 34 -6.98 34 -8 34 C-7.938125 34.763125 -7.87625 35.52625 -7.8125 36.3125 C-8.03403312 39.48780806 -8.71775032 39.95735659 -11 42 C-9.85773739 35.34181135 -8.12704339 29.02749605 -6.08203125 22.59375 C-4.65818936 17.86474445 -3.47156153 13.09084293 -2.30712891 8.29248047 C-1.62536419 5.48484303 -0.91430086 2.74290257 0 0 Z " fill="#D77273" transform="translate(194,147)"/>
<path d="M0 0 C0.33 0.66 0.66 1.32 1 2 C1.66 2 2.32 2 3 2 C2.88490339 3.41750563 2.75746342 4.83401169 2.625 6.25 C2.55539062 7.03890625 2.48578125 7.8278125 2.4140625 8.640625 C1.98217483 11.10156982 1.16851669 12.80903121 0 15 C-0.37668344 16.65740715 -0.72057545 18.32345271 -1 20 C-2.32 20.33 -3.64 20.66 -5 21 C-4.74669922 19.95005859 -4.74669922 19.95005859 -4.48828125 18.87890625 C-3.80167725 14.83068906 -4.13387066 10.92652482 -4.35546875 6.83984375 C-3.91223755 3.29886484 -2.707431 2.21807216 0 0 Z " fill="#880305" transform="translate(267,245)"/>
<path d="M0 0 C0.66 0 1.32 0 2 0 C2 0.66 2 1.32 2 2 C2.99 2 3.98 2 5 2 C7.46126639 4.63731244 8.5242194 7.08819324 9.38671875 10.5546875 C9.60263672 11.41707031 9.81855469 12.27945312 10.04101562 13.16796875 C10.25435547 14.06128906 10.46769531 14.95460938 10.6875 15.875 C10.91244141 16.76058594 11.13738281 17.64617187 11.36914062 18.55859375 C12.48973568 23.12953163 13.28964989 27.25600453 13 32 C10.85583551 28.12830962 9.59384525 23.98931815 8.1875 19.8125 C6.21841284 14.0645478 4.10868671 8.75012236 0.8828125 3.56640625 C0 2 0 2 0 0 Z " fill="#6A191B" transform="translate(287,342)"/>
<path d="M0 0 C1.67542976 0.28604898 3.34385343 0.61781233 5 1 C5.33 3.31 5.66 5.62 6 8 C6.99 8.33 7.98 8.66 9 9 C7.296875 9.71484375 7.296875 9.71484375 5 10 C1.69866749 7.99405789 -1.02870504 5.49064431 -4 3 C-5.485 8.445 -5.485 8.445 -7 14 C-7.33 14 -7.66 14 -8 14 C-8.02708567 12.39592672 -8.04643483 10.7917215 -8.0625 9.1875 C-8.07410156 8.29417969 -8.08570313 7.40085937 -8.09765625 6.48046875 C-8 4 -8 4 -7 1 C-5.5459375 1.0309375 -5.5459375 1.0309375 -4.0625 1.0625 C-1.12534105 1.35618499 -1.12534105 1.35618499 0 0 Z " fill="#B92A2D" transform="translate(249,296)"/>
<path d="M0 0 C2 0 2 0 3.625 1.375 C5 3 5 3 5 5 C5.66 5 6.32 5 7 5 C7 5.66 7 6.32 7 7 C7.66 7 8.32 7 9 7 C9 7.66 9 8.32 9 9 C9.66 9 10.32 9 11 9 C11 9.66 11 10.32 11 11 C12.32 11.66 13.64 12.32 15 13 C15 13.66 15 14.32 15 15 C15.598125 15.2475 16.19625 15.495 16.8125 15.75 C19.28647521 17.16370012 20.43370255 18.65055383 22 21 C18.12009535 19.87913866 15.71996219 18.96723147 13 16 C10.90010348 14.82425289 10.90010348 14.82425289 9 14 C9 12.68 9 11.36 9 10 C7.35 9.67 5.7 9.34 4 9 C4 7.68 4 6.36 4 5 C2.68 4.67 1.36 4.34 0 4 C0 2.68 0 1.36 0 0 Z " fill="#CE6968" transform="translate(370,173)"/>
<path d="M0 0 C2.25 0.25 2.25 0.25 4 1 C3.67 2.32 3.34 3.64 3 5 C3.66 5.33 4.32 5.66 5 6 C4.67 7.65 4.34 9.3 4 11 C3.319375 10.46375 2.63875 9.9275 1.9375 9.375 C-2.06830036 7.49994451 -3.92137472 8.54334812 -8 10 C-9.66246041 10.35371498 -11.32774271 10.69595322 -13 11 C-11.15703955 8.95226617 -9.38608199 7.59507535 -7.0625 6.0625 C-3.98222683 4.16073048 -3.98222683 4.16073048 -1.875 1.6875 C-1.25625 1.130625 -0.6375 0.57375 0 0 Z " fill="#D15658" transform="translate(298,244)"/>
<path d="M0 0 C0.99 0.66 1.98 1.32 3 2 C-1.11974344 5.66199417 -5.35142684 9.11374419 -9.75 12.4375 C-10.67296875 13.13746094 -11.5959375 13.83742188 -12.546875 14.55859375 C-13.76117188 15.27208984 -13.76117188 15.27208984 -15 16 C-15.99 15.67 -16.98 15.34 -18 15 C-17.34 14.67 -16.68 14.34 -16 14 C-16.33 13.34 -16.66 12.68 -17 12 C-15.68 11.67 -14.36 11.34 -13 11 C-13 10.01 -13 9.02 -13 8 C-12.01 7.67 -11.02 7.34 -10 7 C-9.525625 6.505 -9.05125 6.01 -8.5625 5.5 C-6.71714785 3.72846194 -5.43908139 3.60977035 -3 3 C-1.26973898 1.52109931 -1.26973898 1.52109931 0 0 Z " fill="#774546" transform="translate(351,294)"/>
<path d="M0 0 C1.27351308 2.54702616 0.80191925 3.4282945 0.0625 6.125 C-0.13214844 6.84945313 -0.32679688 7.57390625 -0.52734375 8.3203125 C-0.76130859 9.15175781 -0.76130859 9.15175781 -1 10 C-0.46890625 9.71125 0.0621875 9.4225 0.609375 9.125 C1.31578125 8.75375 2.0221875 8.3825 2.75 8 C3.44609375 7.62875 4.1421875 7.2575 4.859375 6.875 C7 6 7 6 11 6 C10.30859375 7.91796875 10.30859375 7.91796875 9 10 C6.72265625 10.86328125 6.72265625 10.86328125 4.0625 11.3125 C3.18722656 11.47363281 2.31195313 11.63476562 1.41015625 11.80078125 C-1 12 -1 12 -4 11 C-4.33 7.7 -4.66 4.4 -5 1 C-4.34 1.66 -3.68 2.32 -3 3 C-2.01 2.01 -1.02 1.02 0 0 Z " fill="#C11F23" transform="translate(254,260)"/>
<path d="M0 0 C0.99 0.33 1.98 0.66 3 1 C2.14339085 3.56982746 1.1484587 5.86780298 0 8.3125 C-1.28338222 11.14146081 -2.04627339 13.27764031 -2.5625 16.375 C-3.0730793 19.43847582 -3.83285505 19.91954085 -6 22 C-6.67863055 23.9959722 -7.34641919 25.99568551 -8 28 C-8.66 28.33 -9.32 28.66 -10 29 C-8.45283019 16.36477987 -8.45283019 16.36477987 -4.9375 13.0625 C-2.02422795 9.96127492 -2.27892178 7.18382669 -2 3 C-1.34 3 -0.68 3 0 3 C0 2.01 0 1.02 0 0 Z " fill="#CD2527" transform="translate(181,205)"/>
<path d="M0 0 C0.66 0.33 1.32 0.66 2 1 C1.1875 2.9375 1.1875 2.9375 0 5 C-3 6 -3 6 -5 6 C-5.33 6.66 -5.66 7.32 -6 8 C-9.78468721 9.54828113 -12.91781703 10.24012841 -17 10 C-17.1875 6.625 -17.1875 6.625 -17 3 C-16.01 2.34 -15.02 1.68 -14 1 C-14.33 2.98 -14.66 4.96 -15 7 C-13.41058594 6.22462891 -13.41058594 6.22462891 -11.7890625 5.43359375 C-10.4012406 4.76781433 -9.01320882 4.10247229 -7.625 3.4375 C-6.57699219 2.92413086 -6.57699219 2.92413086 -5.5078125 2.40039062 C-3.69947784 1.53969288 -1.85148044 0.76347564 0 0 Z " fill="#CD686A" transform="translate(283,255)"/>
<path d="M0 0 C4.51720311 -0.36625971 4.51720311 -0.36625971 6.8125 1.375 C8 3 8 3 8 5 C9.65 5.33 11.3 5.66 13 6 C13.33 7.32 13.66 8.64 14 10 C10.35008834 8.68197635 8.2104799 7.40785992 5 5 C4.34 8.96 3.68 12.92 3 17 C2.67 17 2.34 17 2 17 C2 12.71 2 8.42 2 4 C1.34 4 0.68 4 0 4 C0 2.68 0 1.36 0 0 Z " fill="#BD5454" transform="translate(271,225)"/>
<path d="M0 0 C1.37665009 4.12995026 0.01870904 7.16624223 -1.1875 11.1875 C-1.65545171 12.80286337 -2.12155823 14.41876227 -2.5859375 16.03515625 C-2.82280273 16.8564502 -3.05966797 17.67774414 -3.30371094 18.52392578 C-4.38567016 22.37148204 -5.35642074 26.24454702 -6.3125 30.125 C-6.48354248 30.81746826 -6.65458496 31.50993652 -6.83081055 32.22338867 C-7.22257996 33.81509182 -7.61162953 35.40746411 -8 37 C-9.07421875 35.234375 -9.07421875 35.234375 -10 33 C-9.3509886 30.9504903 -8.68220457 28.90540289 -7.921875 26.89453125 C-6.77567996 23.29567309 -6.17932421 19.65386584 -5.5625 15.9375 C-4.55087503 10.00794821 -3.12268895 5.16858861 0 0 Z " fill="#801E20" transform="translate(237,325)"/>
<path d="M0 0 C3.41609544 1.4640409 5.86541789 2.91671473 8 6 C8.28315031 11.74228834 6.49767408 17.50852837 5 23 C2.71685881 19.57528821 2.86609167 19.00115138 3.4375 15.125 C3.879835 11.51786338 4.24159493 8.49904025 3 5 C2.34 4.67 1.68 4.34 1 4 C1 3.34 1 2.68 1 2 C0.67 1.34 0.34 0.68 0 0 Z " fill="#C96363" transform="translate(396,198)"/>
<path d="M0 0 C2.64 0.33 5.28 0.66 8 1 C8.33 2.98 8.66 4.96 9 7 C8.401875 6.67 7.80375 6.34 7.1875 6 C4.94613529 4.79212012 4.94613529 4.79212012 2 5 C1.67 6.32 1.34 7.64 1 9 C0.34 9 -0.32 9 -1 9 C-1.33 10.32 -1.66 11.64 -2 13 C-3.18414294 9.44757118 -2.69535532 8.30169438 -1.5625 4.8125 C-1.27503906 3.91144531 -0.98757812 3.01039063 -0.69140625 2.08203125 C-0.46324219 1.39496094 -0.23507813 0.70789063 0 0 Z " fill="#D46D70" transform="translate(198,132)"/>
<path d="M0 0 C1.32 0.33 2.64 0.66 4 1 C4 1.66 4 2.32 4 3 C-11.84 3 -27.68 3 -44 3 C-44 2.67 -44 2.34 -44 2 C-29.48 2 -14.96 2 0 2 C0 1.34 0 0.68 0 0 Z " fill="#140A09" transform="translate(345,402)"/>
<path d="M0 0 C0.33 0.66 0.66 1.32 1 2 C1.66 2 2.32 2 3 2 C3 2.66 3 3.32 3 4 C4.65 4.33 6.3 4.66 8 5 C8.33 6.32 8.66 7.64 9 9 C5.58900832 9 2.36911686 8.50854594 -1 8 C-0.67 6.35 -0.34 4.7 0 3 C-0.99 2.67 -1.98 2.34 -3 2 C-2.01 1.34 -1.02 0.68 0 0 Z " fill="#8A1717" transform="translate(339,319)"/>
<path d="M0 0 C4.07376031 1.61010527 6.76507069 4.53822271 9.75 7.625 C10.25660156 8.140625 10.76320313 8.65625 11.28515625 9.1875 C12.52803902 10.45383339 13.76465276 11.7263144 15 13 C11.265625 14.0703125 11.265625 14.0703125 8.875 13.4375 C6.21745528 11.40004905 5.82658804 9.16858749 5 6 C4.34 6 3.68 6 3 6 C2.01 4.02 1.02 2.04 0 0 Z " fill="#DA7E81" transform="translate(352,156)"/>
<path d="M0 0 C0.33 0 0.66 0 1 0 C1.70692647 9.22931781 -0.17759764 16.69280162 -6 24 C-5.36145015 18.47324097 -4.06306646 13.37632649 -2.4375 8.0625 C-2.20353516 7.28326172 -1.96957031 6.50402344 -1.72851562 5.70117188 C-1.15682579 3.79942813 -0.57904309 1.89951774 0 0 Z " fill="#D06D6F" transform="translate(224,39)"/>
<path d="M0 0 C0.66 0.33 1.32 0.66 2 1 C2.62599243 4.38035912 3 7.56169885 3 11 C1.03533587 12.06775224 -0.96855359 13.06553465 -3 14 C-3.66 13.67 -4.32 13.34 -5 13 C-4.67 11.35 -4.34 9.7 -4 8 C-3.01 8 -2.02 8 -1 8 C-0.67 5.36 -0.34 2.72 0 0 Z " fill="#C03032" transform="translate(156,293)"/>
<path d="M0 0 C0 0.99 0 1.98 0 3 C0.99 3.33 1.98 3.66 3 4 C-2.75 9 -2.75 9 -5 9 C-5 9.66 -5 10.32 -5 11 C-5.66 11 -6.32 11 -7 11 C-7 11.66 -7 12.32 -7 13 C-7.66 12.67 -8.32 12.34 -9 12 C-8.67 10.68 -8.34 9.36 -8 8 C-7.34 8 -6.68 8 -6 8 C-5.71125 6.865625 -5.4225 5.73125 -5.125 4.5625 C-4.75375 3.386875 -4.3825 2.21125 -4 1 C-2 0 -2 0 0 0 Z " fill="#7E4F4E" transform="translate(364,282)"/>
<path d="M0 0 C0.96088383 2.88265149 1.11670941 4.67662271 1.09765625 7.66796875 C1.09282227 9.00698242 1.09282227 9.00698242 1.08789062 10.37304688 C1.07951172 11.30181641 1.07113281 12.23058594 1.0625 13.1875 C1.05798828 14.12787109 1.05347656 15.06824219 1.04882812 16.03710938 C1.03704626 18.35813712 1.02059558 20.67903644 1 23 C-0.32 23.33 -1.64 23.66 -3 24 C-2.69479039 20.18687909 -2.37961671 16.37464766 -2.0625 12.5625 C-1.97548828 11.47388672 -1.88847656 10.38527344 -1.79882812 9.26367188 C-1.71181641 8.22919922 -1.62480469 7.19472656 -1.53515625 6.12890625 C-1.456604 5.17056885 -1.37805176 4.21223145 -1.29711914 3.22485352 C-1 1 -1 1 0 0 Z " fill="#9E0001" transform="translate(275,202)"/>
<path d="M0 0 C1.9375 0.8125 1.9375 0.8125 4 2 C4.33 2.99 4.66 3.98 5 5 C4.34 5.66 3.68 6.32 3 7 C2.30251417 8.31747324 1.63040043 9.64914193 1 11 C0.67 10.34 0.34 9.68 0 9 C-0.66 9 -1.32 9 -2 9 C-3.04940314 5.85179059 -3.066855 5.00659136 -2 2 C-1.34 1.34 -0.68 0.68 0 0 Z " fill="#380204" transform="translate(271,323)"/>
<path d="M0 0 C3.73487777 0.4979837 5.81237635 0.87491756 9 3 C8.34 4.32 7.68 5.64 7 7 C4.625 7.125 4.625 7.125 2 7 C0 5 0 5 -0.125 2.375 C-0.08375 1.59125 -0.0425 0.8075 0 0 Z " fill="#700102" transform="translate(205,126)"/>
<path d="M0 0 C0.98120464 3.05263664 0.98120464 4.94736336 0 8 C0.66 8 1.32 8 2 8 C2 8.66 2 9.32 2 10 C1.34 10 0.68 10 0 10 C-0.12117187 10.56589844 -0.24234375 11.13179687 -0.3671875 11.71484375 C-0.53476563 12.44832031 -0.70234375 13.18179688 -0.875 13.9375 C-1.03742188 14.66839844 -1.19984375 15.39929688 -1.3671875 16.15234375 C-2 18 -2 18 -4 19 C-3.42084614 12.27876709 -2.13379681 6.40139043 0 0 Z " fill="#C1292C" transform="translate(197,141)"/>
<path d="M0 0 C2.475 0.99 2.475 0.99 5 2 C5 2.66 5 3.32 5 4 C5.66 4 6.32 4 7 4 C7 4.66 7 5.32 7 6 C7.66 6 8.32 6 9 6 C9.33 6.99 9.66 7.98 10 9 C7.525 10.485 7.525 10.485 5 12 C4 6.25 4 6.25 4 4 C2.68 4 1.36 4 0 4 C0 2.68 0 1.36 0 0 Z " fill="#BF393B" transform="translate(225,35)"/>
<path d="M0 0 C1.125 3.75 1.125 3.75 0 6 C0.66 6 1.32 6 2 6 C1.34 8.64 0.68 11.28 0 14 C-0.66 14 -1.32 14 -2 14 C-2.33 15.65 -2.66 17.3 -3 19 C-4.67641098 14.90913548 -3.2409319 11.28488982 -2.0625 7.25 C-1.86720703 6.55261719 -1.67191406 5.85523438 -1.47070312 5.13671875 C-0.9891754 3.42201027 -0.49574843 1.71065123 0 0 Z " fill="#A87473" transform="translate(144,329)"/>
<path d="M0 0 C2.1385485 2.1385485 2.42655063 3.13275314 3 6 C2.34 6 1.68 6 1 6 C0.87882813 6.71027344 0.75765625 7.42054688 0.6328125 8.15234375 C0.46523437 9.07144531 0.29765625 9.99054688 0.125 10.9375 C-0.03742188 11.85402344 -0.19984375 12.77054687 -0.3671875 13.71484375 C-0.57601562 14.46894531 -0.78484375 15.22304688 -1 16 C-1.66 16.33 -2.32 16.66 -3 17 C-2.88597936 14.72858891 -2.75841495 12.45785448 -2.625 10.1875 C-2.55539063 8.92292969 -2.48578125 7.65835937 -2.4140625 6.35546875 C-2 3 -2 3 0 0 Z " fill="#4B3031" transform="translate(132,377)"/>
<path d="M0 0 C0.625 2.5625 0.625 2.5625 1 5 C-0.32 5.99 -1.64 6.98 -3 8 C-3.33 7.01 -3.66 6.02 -4 5 C-4.99 4.67 -5.98 4.34 -7 4 C-6.67 2.68 -6.34 1.36 -6 0 C-2.25 -1.125 -2.25 -1.125 0 0 Z " fill="#B83135" transform="translate(384,265)"/>
<path d="M0 0 C4.92908146 3.87792288 8.5423711 7.76116833 12 13 C11.401875 12.690625 10.80375 12.38125 10.1875 12.0625 C7.91043228 10.89790296 7.91043228 10.89790296 5 10 C4.67 10.66 4.34 11.32 4 12 C4 9 4 9 5 6 C3.68 6 2.36 6 1 6 C0.67 4.02 0.34 2.04 0 0 Z " fill="#C64447" transform="translate(343,147)"/>
<path d="M0 0 C3.10853024 2.53384398 3.77382205 4.96925146 4.6875 8.8125 C5.06455078 10.33810547 5.06455078 10.33810547 5.44921875 11.89453125 C5.99993844 14.99965292 6.09875956 17.85380252 6 21 C4.28662339 17.78163043 3.04955759 14.51221914 1.875 11.0625 C1.52179688 10.04285156 1.16859375 9.02320313 0.8046875 7.97265625 C0.04074559 5.15052133 -0.16038258 2.90292465 0 0 Z " fill="#5C181B" transform="translate(294,353)"/>
<path d="M0 0 C0.99 0.33 1.98 0.66 3 1 C4.1875 4.0625 4.1875 4.0625 5 7 C1.94736336 7.98120464 0.05263664 7.98120464 -3 7 C-3.1875 4.625 -3.1875 4.625 -3 2 C-2.01 1.34 -1.02 0.68 0 0 Z " fill="#270303" transform="translate(286,344)"/>
<path d="M0 0 C1.98 0.66 3.96 1.32 6 2 C6 2.99 6 3.98 6 5 C6.99 5.33 7.98 5.66 9 6 C8.67 7.32 8.34 8.64 8 10 C7.05125 9.360625 6.1025 8.72125 5.125 8.0625 C2.24712173 6.07379437 2.24712173 6.07379437 0 5 C0 3.33333333 0 1.66666667 0 0 Z " fill="#781619" transform="translate(349,329)"/>
<path d="M0 0 C2 2 2 2 2 4 C1.01 4 0.02 4 -1 4 C-2.66489182 7.92438786 -3.87204037 11.89100419 -5 16 C-5.33 16 -5.66 16 -6 16 C-6.25 9.375 -6.25 9.375 -4 6 C-3.61500109 4.34450469 -3.27206865 2.6777567 -3 1 C-2.01 0.67 -1.02 0.34 0 0 Z " fill="#CB2A2E" transform="translate(189,180)"/>
<path d="M0 0 C1.32 0 2.64 0 4 0 C4.66 2.97 5.32 5.94 6 9 C3.03 8.505 3.03 8.505 0 8 C0 5.36 0 2.72 0 0 Z " fill="#BE1C1F" transform="translate(225,39)"/>
<path d="M0 0 C1.5625 1.1875 1.5625 1.1875 3 3 C2.73904456 5.67479327 2.1995243 7.60095141 1 10 C-1.89932357 7.60490662 -2.50168276 5.68754757 -3 2 C-2.01 1.34 -1.02 0.68 0 0 Z M3 0 C3.99 0.495 3.99 0.495 5 1 C4.01 1.495 4.01 1.495 3 2 C3 1.34 3 0.68 3 0 Z " fill="#4D1F20" transform="translate(267,322)"/>
<path d="M0 0 C-6.37295696 3.17476348 -11.84937514 5.59524765 -19 6 C-15.84690341 3.35595756 -12.83152644 2.0431835 -8.9375 0.75 C-7.89464844 0.39421875 -6.85179687 0.0384375 -5.77734375 -0.328125 C-3 -1 -3 -1 0 0 Z " fill="#B22123" transform="translate(358,288)"/>
<path d="M0 0 C0.66 0.33 1.32 0.66 2 1 C-0.41772864 3.53285857 -2.84238782 5.42119391 -6 7 C-6.66 6.67 -7.32 6.34 -8 6 C-7 3 -7 3 -3.5625 1.25 C-2.386875 0.8375 -1.21125 0.425 0 0 Z M-7 7 C-5.515 7.99 -5.515 7.99 -4 9 C-4 9.66 -4 10.32 -4 11 C-4.99 11.33 -5.98 11.66 -7 12 C-7.33 11.34 -7.66 10.68 -8 10 C-7.67 9.01 -7.34 8.02 -7 7 Z " fill="#C82325" transform="translate(292,252)"/>
<path d="M0 0 C0.33 0 0.66 0 1 0 C1.33 3.63 1.66 7.26 2 11 C1.67 10.34 1.34 9.68 1 9 C-0.32 11.31 -1.64 13.62 -3 16 C-4.31223496 12.06329512 -3.24296256 9.87511856 -2 6 C-1.67 6 -1.34 6 -1 6 C-0.67 4.02 -0.34 2.04 0 0 Z " fill="#8D1717" transform="translate(150,314)"/>
<path d="M0 0 C2 1.8125 2 1.8125 4 4 C4 4.99 4 5.98 4 7 C2.125 7.625 2.125 7.625 0 8 C-2 6 -2 6 -2.125 3.375 C-2.08375 2.59125 -2.0425 1.8075 -2 1 C-1.34 0.67 -0.68 0.34 0 0 Z " fill="#571414" transform="translate(365,344)"/>
<path d="M0 0 C6.75 0.875 6.75 0.875 9 2 C9 2.66 9 3.32 9 4 C5.91190305 5.76462683 4.76687864 6 1 6 C0.67 4.02 0.34 2.04 0 0 Z " fill="#D35252" transform="translate(361,169)"/>
<path d="M0 0 C0.33 0 0.66 0 1 0 C1 1.98 1 3.96 1 6 C-3.29 6 -7.58 6 -12 6 C-11.34 5.34 -10.68 4.68 -10 4 C-9.05125 4.04125 -8.1025 4.0825 -7.125 4.125 C-3.88509572 4.32061025 -3.88509572 4.32061025 -1.6875 2 C-1.130625 1.34 -0.57375 0.68 0 0 Z " fill="#170B0B" transform="translate(380,399)"/>
<path d="M0 0 C0.99 0.33 1.98 0.66 3 1 C2.319375 2.051875 2.319375 2.051875 1.625 3.125 C-0.01686943 6.02984591 -1.03677099 8.8139348 -2 12 C-1.34 12.33 -0.68 12.66 0 13 C-1.32 14.32 -2.64 15.64 -4 17 C-3.58411954 10.80481527 -2.39748106 5.73310689 0 0 Z " fill="#540404" transform="translate(245,299)"/>
<path d="M0 0 C1 2 1 2 0.44140625 4.1640625 C0.15136719 4.97617187 -0.13867188 5.78828125 -0.4375 6.625 C-0.72496094 7.44226563 -1.01242188 8.25953125 -1.30859375 9.1015625 C-1.53675781 9.72804688 -1.76492187 10.35453125 -2 11 C-2.66 11 -3.32 11 -4 11 C-4.33 7.7 -4.66 4.4 -5 1 C-4.34 1.66 -3.68 2.32 -3 3 C-2.01 2.01 -1.02 1.02 0 0 Z " fill="#D2393D" transform="translate(254,260)"/>
<path d="M0 0 C0.33 0 0.66 0 1 0 C1.63019694 10.15317287 1.63019694 10.15317287 -1 13.6875 C-1.66 14.120625 -2.32 14.55375 -3 15 C-2.44854729 9.76119922 -1.57077907 5.02649303 0 0 Z " fill="#D77275" transform="translate(178,205)"/>
<path d="M0 0 C0.33 0 0.66 0 1 0 C1.10349817 6.41688675 0.74507544 12.62694402 0 19 C-0.33 19 -0.66 19 -1 19 C-3.56223302 11.85271843 -2.42433667 7.09053307 0 0 Z " fill="#C87376" transform="translate(204,109)"/>
<path d="M0 0 C0.91787677 3.02968349 1.04344865 5.42271419 0.6875 8.5625 C0.60886719 9.32691406 0.53023437 10.09132813 0.44921875 10.87890625 C0 13 0 13 -2 16 C-2.66 16 -3.32 16 -4 16 C-2.84941444 10.60204011 -1.57578241 5.29012667 0 0 Z " fill="#D67575" transform="translate(209,92)"/>
<path d="M0 0 C1.32 1.32 2.64 2.64 4 4 C1.64561267 5.42944945 0.51967567 6.08661261 -2.25 5.625 C-2.8275 5.41875 -3.405 5.2125 -4 5 C-4 4.01 -4 3.02 -4 2 C-2.68 1.34 -1.36 0.68 0 0 Z " fill="#C63635" transform="translate(392,194)"/>
<path d="M0 0 C2.97851562 0.390625 2.97851562 0.390625 5.95703125 0.78125 C8.15471706 1.053233 8.15471706 1.053233 11 1 C10.34 2.65 9.68 4.3 9 6 C5.06326356 4.68775452 2.77280706 3.08089673 0 0 Z " fill="#B64D4D" transform="translate(285,235)"/>
<path d="M0 0 C1.32 0.33 2.64 0.66 4 1 C4 1.99 4 2.98 4 4 C1.1875 6.25 1.1875 6.25 -2 8 C-2.99 7.67 -3.98 7.34 -5 7 C-4.34 6.67 -3.68 6.34 -3 6 C-3.33 5.34 -3.66 4.68 -4 4 C-2.68 3.67 -1.36 3.34 0 3 C0 2.01 0 1.02 0 0 Z " fill="#865859" transform="translate(338,302)"/>
<path d="M0 0 C4.31392226 0.4793247 6.16569547 1.7457985 9 5 C5.625 5.125 5.625 5.125 2 5 C1.34 4.34 0.68 3.68 0 3 C0 2.01 0 1.02 0 0 Z " fill="#CA2A2D" transform="translate(240,162)"/>
<path d="M0 0 C3.23525804 1.61762902 4.4913704 4.84317595 6 8 C6.75 10.9375 6.75 10.9375 7 13 C3.81994972 9.11327187 0.89445553 5.10047867 -2 1 C-1.34 0.67 -0.68 0.34 0 0 Z " fill="#851D20" transform="translate(280,329)"/>
<path d="M0 0 C3.375 -0.125 3.375 -0.125 7 0 C7.66 0.66 8.32 1.32 9 2 C7 4 7 4 4.375 4.125 C3.59125 4.08375 2.8075 4.0425 2 4 C2 3.34 2 2.68 2 2 C1.34 2 0.68 2 0 2 C0 1.34 0 0.68 0 0 Z " fill="#380000" transform="translate(318,301)"/>
<path d="M0 0 C0.33 0 0.66 0 1 0 C1.22142255 1.95689659 1.4267568 3.91561952 1.625 5.875 C1.74101562 6.96554688 1.85703125 8.05609375 1.9765625 9.1796875 C1.98429687 10.11039063 1.99203125 11.04109375 2 12 C1.34 12.66 0.68 13.32 0 14 C-2.27571116 5.96498906 -2.27571116 5.96498906 -1.125 1.9375 C-0.75375 1.298125 -0.3825 0.65875 0 0 Z " fill="#BD3C3B" transform="translate(394,230)"/>
<path d="M0 0 C0.33 0 0.66 0 1 0 C1.19188324 4.79708091 0.9022844 8.56133639 -1 13 C-1.99 13.495 -1.99 13.495 -3 14 C-2.40380045 9.13103697 -1.43023178 4.67209049 0 0 Z " fill="#D77A7C" transform="translate(174,220)"/>
<path d="M0 0 C0 0.66 0 1.32 0 2 C0.66 2.33 1.32 2.66 2 3 C1.01 3.33 0.02 3.66 -1 4 C-1 4.66 -1 5.32 -1 6 C-2.32 5.67 -3.64 5.34 -5 5 C-5 3.68 -5 2.36 -5 1 C-3 0 -3 0 0 0 Z " fill="#C21C1B" transform="translate(397,201)"/>
<path d="M0 0 C0.66 0 1.32 0 2 0 C3.7265625 1.75 3.7265625 1.75 5.625 4 C6.25664062 4.7425 6.88828125 5.485 7.5390625 6.25 C8.02117187 6.8275 8.50328125 7.405 9 8 C8.67 8.66 8.34 9.32 8 10 C6.68 9.01 5.36 8.02 4 7 C3.67 7.66 3.34 8.32 3 9 C2.87625 8.195625 2.7525 7.39125 2.625 6.5625 C2.315625 5.2940625 2.315625 5.2940625 2 4 C1.34 3.67 0.68 3.34 0 3 C0 2.01 0 1.02 0 0 Z " fill="#B17E81" transform="translate(355,331)"/>
<path d="M0 0 C0.96661363 3.12180401 0.98988909 5.52083795 0.5625 8.75 C0.40974609 9.94882812 0.40974609 9.94882812 0.25390625 11.171875 C0.12822266 12.07679688 0.12822266 12.07679688 0 13 C-0.99 13.33 -1.98 13.66 -3 14 C-2.28547412 9.23649415 -1.20465156 4.65798604 0 0 Z " fill="#8C7474" transform="translate(135,363)"/>
<path d="M0 0 C0.33 0 0.66 0 1 0 C1.33 2.64 1.66 5.28 2 8 C0.68 8.99 -0.64 9.98 -2 11 C-1.85892253 9.54119891 -1.71197585 8.08296449 -1.5625 6.625 C-1.48128906 5.81289062 -1.40007812 5.00078125 -1.31640625 4.1640625 C-1 2 -1 2 0 0 Z " fill="#BF2526" transform="translate(211,90)"/>
<path d="M0 0 C0 0.99 0 1.98 0 3 C0.99 3.33 1.98 3.66 3 4 C2.01 4.99 1.02 5.98 0 7 C-0.66 6.67 -1.32 6.34 -2 6 C-1.67 5.67 -1.34 5.34 -1 5 C-2.32 4.34 -3.64 3.68 -5 3 C-2.25 0 -2.25 0 0 0 Z " fill="#B64D4F" transform="translate(364,282)"/>
<path d="M0 0 C1.4589426 0.47730838 2.91713496 0.95691042 4.375 1.4375 C5.18710937 1.70433594 5.99921875 1.97117188 6.8359375 2.24609375 C9 3 9 3 11 4 C10.67 4.99 10.34 5.98 10 7 C8.51719804 6.21516341 7.0388502 5.42190666 5.5625 4.625 C4.73878906 4.18414062 3.91507812 3.74328125 3.06640625 3.2890625 C1 2 1 2 0 0 Z " fill="#C11F21" transform="translate(256,158)"/>
<path d="M0 0 C0.66 0 1.32 0 2 0 C2 0.66 2 1.32 2 2 C2.66 2 3.32 2 4 2 C4 2.66 4 3.32 4 4 C4.66 4 5.32 4 6 4 C5.67 4.66 5.34 5.32 5 6 C1 6 1 6 -2 5 C-1.34 3.35 -0.68 1.7 0 0 Z " fill="#D8686C" transform="translate(323,128)"/>
<path d="M0 0 C1.32 0.33 2.64 0.66 4 1 C4 1.66 4 2.32 4 3 C4.61875 3.268125 5.2375 3.53625 5.875 3.8125 C8 5 8 5 10 8 C6.66666667 6.33333333 3.33333333 4.66666667 0 3 C0 2.01 0 1.02 0 0 Z " fill="#D27573" transform="translate(282,90)"/>
<path d="M0 0 C0.66 0 1.32 0 2 0 C1.71682074 1.60568666 1.42312209 3.20952047 1.125 4.8125 C0.96257812 5.70582031 0.80015625 6.59914063 0.6328125 7.51953125 C0 10 0 10 -2 13 C-3.18771723 9.57056481 -2.80226223 7.62215325 -1.5625 4.25 C-1.27503906 3.45078125 -0.98757812 2.6515625 -0.69140625 1.828125 C-0.46324219 1.22484375 -0.23507813 0.6215625 0 0 Z " fill="#60191C" transform="translate(230,349)"/>
<path d="M0 0 C0.33 0 0.66 0 1 0 C1.17835515 4.54805635 0.99785435 7.8794254 -1 12 C-1.33 12 -1.66 12 -2 12 C-1.85904936 10.3745692 -1.71207913 8.74965949 -1.5625 7.125 C-1.48128906 6.22007812 -1.40007812 5.31515625 -1.31640625 4.3828125 C-1 2 -1 2 0 0 Z " fill="#CB2327" transform="translate(268,204)"/>
<path d="M0 0 C1.12894876 0.93274109 2.25300876 1.87140122 3.375 2.8125 C4.00148438 3.33457031 4.62796875 3.85664063 5.2734375 4.39453125 C7 6 7 6 9 9 C5.30712847 8.09729807 3.44631711 7.59508949 1.125 4.5 C0 2 0 2 0 0 Z " fill="#DB8F93" transform="translate(334,138)"/>
<path d="M0 0 C2.31 0.33 4.62 0.66 7 1 C3.79619983 3.13586678 2.98060033 3.23132175 -0.6875 3.125 C-1.49574219 3.10695313 -2.30398438 3.08890625 -3.13671875 3.0703125 C-4.05904297 3.03550781 -4.05904297 3.03550781 -5 3 C-5.33 3.66 -5.66 4.32 -6 5 C-6 4.01 -6 3.02 -6 2 C-4.02 2 -2.04 2 0 2 C0 1.34 0 0.68 0 0 Z " fill="#B42428" transform="translate(316,297)"/>
<path d="M0 0 C0.33 0 0.66 0 1 0 C0.58525633 5.28798182 -0.35224614 8.11690718 -4 12 C-3.45660208 7.43545749 -2.20536179 4.0271824 0 0 Z " fill="#C95157" transform="translate(164,262)"/>
<path d="M0 0 C3.7952131 1.49097658 5.61042731 3.75700849 8 7 C7.01 7 6.02 7 5 7 C4.67 6.01 4.34 5.02 4 4 C1.98491642 3.26676204 1.98491642 3.26676204 0 3 C0 2.01 0 1.02 0 0 Z " fill="#C65B5A" transform="translate(297,104)"/>
<path d="M0 0 C0.66 0.33 1.32 0.66 2 1 C1.44271087 4.34373475 0.64826111 7.03312999 -1 10 C-2.23076923 4.58461538 -2.23076923 4.58461538 -1.0625 1.625 C-0.5365625 0.820625 -0.5365625 0.820625 0 0 Z " fill="#BF2221" transform="translate(220,59)"/>
<path d="M0 0 C2.475 0.99 2.475 0.99 5 2 C5 2.66 5 3.32 5 4 C5.66 4 6.32 4 7 4 C7 4.66 7 5.32 7 6 C6.01 6 5.02 6 4 6 C4 5.34 4 4.68 4 4 C2.68 4 1.36 4 0 4 C0 2.68 0 1.36 0 0 Z " fill="#CF7C80" transform="translate(225,35)"/>
<path d="M0 0 C0.33 0 0.66 0 1 0 C1.33 3.96 1.66 7.92 2 12 C1.67 12 1.34 12 1 12 C1 10.35 1 8.7 1 7 C0.01 7.33 -0.98 7.66 -2 8 C-2 4.79604584 -1.25664978 2.90600261 0 0 Z " fill="#392626" transform="translate(380,392)"/>
<path d="M0 0 C2.4294516 3.6441774 2.16179575 5.71241272 2 10 C1.34 10 0.68 10 0 10 C-1.125 3.375 -1.125 3.375 0 0 Z " fill="#601314" transform="translate(142,343)"/>
<path d="M0 0 C1.9375 0.8125 1.9375 0.8125 4 2 C4.33 2.99 4.66 3.98 5 5 C3.35 5.33 1.7 5.66 0 6 C0 4.02 0 2.04 0 0 Z " fill="#641417" transform="translate(359,338)"/>
<path d="M0 0 C2.95409701 1.37154504 5.44008376 2.98863724 8 5 C7.67 5.66 7.34 6.32 7 7 C4.0625 5.75 4.0625 5.75 1 4 C0.125 1.8125 0.125 1.8125 0 0 Z " fill="#B67D7F" transform="translate(347,324)"/>
<path d="M0 0 C0.99 0.33 1.98 0.66 3 1 C3.6875 3.0625 3.6875 3.0625 4 5 C2.68 5 1.36 5 0 5 C-0.5625 3.0625 -0.5625 3.0625 -1 1 C-0.67 0.67 -0.34 0.34 0 0 Z " fill="#A9191A" transform="translate(369,275)"/>
<path d="M0 0 C1.18771723 3.42943519 0.80226223 5.37784675 -0.4375 8.75 C-0.86869141 9.94882813 -0.86869141 9.94882813 -1.30859375 11.171875 C-1.65083984 12.07679688 -1.65083984 12.07679688 -2 13 C-3.35015859 8.94952424 -2.62084998 6.2079832 -2 2 C-1.34 2 -0.68 2 0 2 C0 1.34 0 0.68 0 0 Z " fill="#CA8B8A" transform="translate(272,242)"/>
<path d="M0 0 C3.36720387 1.39332574 4.9859524 2.9789286 7 6 C5.35 5.67 3.7 5.34 2 5 C2 4.34 2 3.68 2 3 C1.01 3 0.02 3 -1 3 C-0.67 2.01 -0.34 1.02 0 0 Z " fill="#CD6767" transform="translate(241,50)"/>
<path d="M0 0 C0.99 0.33 1.98 0.66 3 1 C3.33 4.63 3.66 8.26 4 12 C1.94116077 7.88232154 1.03834872 4.45006595 0 0 Z " fill="#461618" transform="translate(296,362)"/>
<path d="M0 0 C3.36720387 1.39332574 4.9859524 2.9789286 7 6 C6.67 6.66 6.34 7.32 6 8 C1.3125 4.38671875 1.3125 4.38671875 0 3 C0 2.01 0 1.02 0 0 Z " fill="#AD2829" transform="translate(258,306)"/>
<path d="M0 0 C-0.99 1.485 -0.99 1.485 -2 3 C-1.67 3.66 -1.34 4.32 -1 5 C-1.99 5 -2.98 5 -4 5 C-5.6875 2.5 -5.6875 2.5 -7 0 C-2.25 -1.125 -2.25 -1.125 0 0 Z " fill="#A70201" transform="translate(283,225)"/>
<path d="M0 0 C1.98 0 3.96 0 6 0 C6 0.66 6 1.32 6 2 C5.34 2 4.68 2 4 2 C4 2.66 4 3.32 4 4 C2.35 4 0.7 4 -1 4 C-0.67 2.68 -0.34 1.36 0 0 Z " fill="#CA2124" transform="translate(377,188)"/>
<path d="M0 0 C1.32 0.66 2.64 1.32 4 2 C2.68 3.32 1.36 4.64 0 6 C-0.66 5.67 -1.32 5.34 -2 5 C-1.34 3.35 -0.68 1.7 0 0 Z " fill="#B85D5D" transform="translate(374,275)"/>
<path d="M0 0 C0.33 0 0.66 0 1 0 C1.36923077 7.50769231 1.36923077 7.50769231 -0.5 10 C-0.995 10.33 -1.49 10.66 -2 11 C-1.125 3.375 -1.125 3.375 0 0 Z " fill="#DA8F91" transform="translate(213,77)"/>
<path d="M0 0 C0.99 0.33 1.98 0.66 3 1 C2.01 2.485 2.01 2.485 1 4 C-2.125 4.1875 -2.125 4.1875 -5 4 C-4.67 3.01 -4.34 2.02 -4 1 C-3.34 1 -2.68 1 -2 1 C-2 1.66 -2 2.32 -2 3 C-1.34 3 -0.68 3 0 3 C0 2.01 0 1.02 0 0 Z " fill="#4B4545" transform="translate(220,401)"/>
<path d="M0 0 C0.33 0.66 0.66 1.32 1 2 C1.66 2 2.32 2 3 2 C3 3.98 3 5.96 3 8 C2.01 8.495 2.01 8.495 1 9 C0.67 6.03 0.34 3.06 0 0 Z " fill="#351514" transform="translate(300,377)"/>
<path d="M0 0 C0.33 0.66 0.66 1.32 1 2 C4.465 1.505 4.465 1.505 8 1 C8 1.66 8 2.32 8 3 C5.69 3.33 3.38 3.66 1 4 C0.67 2.68 0.34 1.36 0 0 Z " fill="#C5282B" transform="translate(252,268)"/>
<path d="M0 0 C0.99 0.33 1.98 0.66 3 1 C3 1.66 3 2.32 3 3 C3.66 3 4.32 3 5 3 C4.34 4.32 3.68 5.64 3 7 C1.5 5.75 1.5 5.75 0 4 C0 2.68 0 1.36 0 0 Z " fill="#B93638" transform="translate(384,258)"/>
<path d="M0 0 C1.65 0 3.3 0 5 0 C5.66 1.65 6.32 3.3 7 5 C3.34683329 3.75023244 2.21934164 3.32901247 0 0 Z " fill="#CA7A79" transform="translate(278,230)"/>
<path d="M0 0 C0.66 0.33 1.32 0.66 2 1 C1.8125 2.8125 1.8125 2.8125 1 5 C-1.5625 6.75 -1.5625 6.75 -4 8 C-2.87548273 5.0280615 -1.77706209 2.66559313 0 0 Z " fill="#CB3032" transform="translate(323,221)"/>
<path d="M0 0 C0.33 1.65 0.66 3.3 1 5 C-3.875 3.25 -3.875 3.25 -5 1 C-3 0 -3 0 0 0 Z " fill="#BE1D23" transform="translate(255,153)"/>
<path d="M0 0 C2.02054804 1.64169528 4.02043058 3.30911778 6 5 C6 5.33 6 5.66 6 6 C4.35 6 2.7 6 1 6 C0.67 4.02 0.34 2.04 0 0 Z " fill="#D06D71" transform="translate(343,147)"/>
<path d="M0 0 C0.99 0 1.98 0 3 0 C3.33 1.65 3.66 3.3 4 5 C2.68 5 1.36 5 0 5 C0 3.35 0 1.7 0 0 Z " fill="#620405" transform="translate(205,126)"/>
</svg>
