<?xml version="1.0" encoding="UTF-8"?>
<svg width="1200" height="630" viewBox="0 0 1200 630" fill="none" xmlns="http://www.w3.org/2000/svg" role="img" aria-labelledby="title desc">
  <title id="title">Ritesh Gabale Portfolio</title>
  <desc id="desc">A dark portfolio preview card with neon cyan accents, Ritesh Gabale branding, and developer highlights.</desc>
  <rect width="1200" height="630" rx="36" fill="#080808"/>
  <circle cx="1020" cy="120" r="190" fill="#00F2FE" fill-opacity="0.08"/>
  <circle cx="180" cy="520" r="230" fill="#4FACFE" fill-opacity="0.09"/>
  <rect x="72" y="72" width="1056" height="486" rx="28" stroke="#00F2FE" stroke-opacity="0.22"/>
  <path d="M112.5 143.5H262.5" stroke="#00F2FE" stroke-opacity="0.35" stroke-width="3" stroke-linecap="round"/>
  <path d="M112.5 167.5H212.5" stroke="#00F2FE" stroke-opacity="0.18" stroke-width="3" stroke-linecap="round"/>
  <text x="112" y="242" fill="#F8FAFC" font-family="Outfit, Arial, sans-serif" font-size="78" font-weight="700" letter-spacing="-1.5">Ritesh Gabale</text>
  <text x="112" y="308" fill="#00F2FE" font-family="Plus Jakarta Sans, Arial, sans-serif" font-size="28" font-weight="600" letter-spacing="4">PORTFOLIO</text>
  <text x="112" y="390" fill="#94A3B8" font-family="Plus Jakarta Sans, Arial, sans-serif" font-size="34" font-weight="400">MERN Stack Developer</text>
  <text x="112" y="438" fill="#94A3B8" font-family="Plus Jakarta Sans, Arial, sans-serif" font-size="24" font-weight="400">Projects, skills, certifications, and contact information.</text>
  <g transform="translate(790 170)">
    <rect x="0.5" y="0.5" width="280" height="280" rx="30" fill="#0D1220" stroke="#00F2FE" stroke-opacity="0.28"/>
    <circle cx="140" cy="140" r="96" fill="#00F2FE" fill-opacity="0.12"/>
    <circle cx="140" cy="140" r="58" fill="#00F2FE" fill-opacity="0.2"/>
    <path d="M140 76C167.614 76 190 98.386 190 126V166C190 193.614 167.614 216 140 216C112.386 216 90 193.614 90 166V126C90 98.386 112.386 76 140 76Z" stroke="#00F2FE" stroke-width="10" stroke-linecap="round"/>
    <path d="M114 142L132 160L166 122" stroke="#F8FAFC" stroke-width="12" stroke-linecap="round" stroke-linejoin="round"/>
  </g>
  <g transform="translate(790 476)">
    <rect width="110" height="34" rx="17" fill="#00F2FE" fill-opacity="0.14"/>
    <text x="55" y="23" text-anchor="middle" fill="#00F2FE" font-family="Plus Jakarta Sans, Arial, sans-serif" font-size="14" font-weight="700" letter-spacing="2">REACT</text>
  </g>
  <g transform="translate(912 476)">
    <rect width="102" height="34" rx="17" fill="#00F2FE" fill-opacity="0.14"/>
    <text x="51" y="23" text-anchor="middle" fill="#00F2FE" font-family="Plus Jakarta Sans, Arial, sans-serif" font-size="14" font-weight="700" letter-spacing="2">MERN</text>
  </g>
  <g transform="translate(1024 476)">
    <rect width="92" height="34" rx="17" fill="#00F2FE" fill-opacity="0.14"/>
    <text x="46" y="23" text-anchor="middle" fill="#00F2FE" font-family="Plus Jakarta Sans, Arial, sans-serif" font-size="14" font-weight="700" letter-spacing="2">UI</text>
  </g>
</svg>
